# xmcd
#
# Track frame offsets: 
#        182
#        15855
#        44032
#        68092
#        92007
#
# Disc length: 1463 seconds
#
# Revision: 1
# Processed by: cddbd v1.5.2PL0 Copyright (c) Steve Scherf et al.
# Submitted via: ExactAudioCopy v0.99pb5
#
DISCID=3505b505
DTITLE=Dignity - Talk To Me [CDM]
DYEAR=1997
DGENRE=R&B
TTITLE0=Talk To Me (Down Low's Soul Solution) (Radio Edit)
TTITLE1=Talk To Me (Rutti's Remix) (feat. Complex)
TTITLE2=Talk To Me (Down Low's Soul Solution)
TTITLE3=Talk To Me (Down Low's Unity Mix)
TTITLE4=Talk To Me (Original Edit)
EXTD=
EXTT0=
EXTT1=
EXTT2=
EXTT3=
EXTT4=
PLAYORDER=
